<svg width="31" height="28" viewBox="0 0 31 28" fill="none" xmlns="http://www.w3.org/2000/svg">
<path d="M10.85 12.4444C14.2755 12.4444 17.05 9.66 17.05 6.22222C17.05 2.78444 14.2755 0 10.85 0C7.4245 0 4.65 2.78444 4.65 6.22222C4.65 9.66 7.4245 12.4444 10.85 12.4444ZM10.85 3.11111C12.555 3.11111 13.95 4.51111 13.95 6.22222C13.95 7.93333 12.555 9.33333 10.85 9.33333C9.145 9.33333 7.75 7.93333 7.75 6.22222C7.75 4.51111 9.145 3.11111 10.85 3.11111Z" fill="#0231A8"/>
<path d="M23.25 15.5556C25.823 15.5556 27.9 13.4711 27.9 10.8889C27.9 8.30667 25.823 6.22222 23.25 6.22222C20.677 6.22222 18.6 8.30667 18.6 10.8889C18.6 13.4711 20.677 15.5556 23.25 15.5556ZM23.25 9.33333C24.1025 9.33333 24.8 10.0333 24.8 10.8889C24.8 11.7444 24.1025 12.4444 23.25 12.4444C22.3975 12.4444 21.7 11.7444 21.7 10.8889C21.7 10.0333 22.3975 9.33333 23.25 9.33333Z" fill="#0231A8"/>
<path d="M23.25 17.1111C21.5295 17.1111 19.871 17.6867 18.507 18.7444C14.26 14.4978 7.3935 14.5133 3.162 18.7756C1.147 20.8133 0 23.5667 0 26.4444C0 27.3 0.6975 28 1.55 28C2.4025 28 3.1 27.3 3.1 26.4444C3.1 22.1511 6.572 18.6667 10.85 18.6667C15.128 18.6667 18.6 22.1511 18.6 26.4444C18.6 27.3 19.2975 28 20.15 28C21.0025 28 21.7 27.3 21.7 26.4444C21.7 24.6244 21.2505 22.8356 20.367 21.2333C22.382 19.6311 25.3115 19.9733 26.8925 21.9956C27.5435 22.82 27.9 23.8311 27.9 24.8889C27.9 25.7444 28.5975 26.4444 29.45 26.4444C30.3025 26.4444 31 25.7444 31 24.8889C31 20.5956 27.528 17.1111 23.25 17.1111Z" fill="#0231A8"/>
</svg>
