<svg width="23" height="24" viewBox="0 0 23 24" fill="none" xmlns="http://www.w3.org/2000/svg">
<path d="M7.66667 0C8.36944 0 8.94444 0.568421 8.94444 1.26316V2.52632H14.0556V1.26316C14.0556 0.568421 14.6306 0 15.3333 0C16.0361 0 16.6111 0.568421 16.6111 1.26316V2.52632H20.4444C21.85 2.52632 23 3.66316 23 5.05263V21.4737C23 22.8632 21.85 24 20.4444 24H2.55556C1.15 24 0 22.8632 0 21.4737V5.05263C0 3.66316 1.15 2.52632 2.55556 2.52632H6.38889V1.26316C6.38889 0.568421 6.96389 0 7.66667 0ZM6.38889 5.05263H2.55556V8.8421H20.4444V5.05263H16.6111V6.31579C16.6111 7.01053 16.0361 7.57895 15.3333 7.57895C14.6306 7.57895 14.0556 7.01053 14.0556 6.31579V5.05263H8.94444V6.31579C8.94444 7.01053 8.36944 7.57895 7.66667 7.57895C6.96389 7.57895 6.38889 7.01053 6.38889 6.31579V5.05263ZM20.4444 11.3684H2.55556V21.4737H20.4444V11.3684Z" fill="#0231A8"/>
</svg>
