<svg width="27" height="27" viewBox="0 0 27 27" fill="none" xmlns="http://www.w3.org/2000/svg">
<path d="M13.5 12.1439C17.226 12.1439 20.25 15.1664 20.25 18.8906V26.9865H17.55V18.8906C17.55 16.7451 15.876 14.9775 13.743 14.8561H13.5C11.3535 14.8561 9.585 16.5157 9.4635 18.6612V27H6.7635V18.904C6.7635 15.1799 9.7875 12.1574 13.5135 12.1574L13.5 12.1439ZM4.725 16.1919C5.103 16.1919 5.4675 16.2324 5.8185 16.3133C5.589 17.0015 5.454 17.7166 5.4135 18.4318V18.9985C5.265 18.9445 5.103 18.904 4.9275 18.8906H4.7385C3.699 18.8906 2.8215 19.6732 2.727 20.7121V26.973H0V20.901C0 18.2969 2.1195 16.1784 4.725 16.1784V16.1919ZM22.275 16.1919C24.8805 16.1919 27 18.3103 27 20.9145V26.9865H24.3V20.9145C24.3 19.8756 23.5035 18.9985 22.464 18.904H22.275C22.0455 18.904 21.816 18.931 21.6 19.012V18.8906C21.6 17.9865 21.4515 17.1229 21.1815 16.3268C21.5325 16.2459 21.897 16.1919 22.275 16.1919ZM4.725 8.09595C6.588 8.09595 8.1 9.6072 8.1 11.4693C8.1 13.3313 6.588 14.8426 4.725 14.8426C2.862 14.8426 1.35 13.3313 1.35 11.4693C1.35 9.6072 2.862 8.09595 4.725 8.09595ZM22.275 8.09595C24.138 8.09595 25.65 9.6072 25.65 11.4693C25.65 13.3313 24.138 14.8426 22.275 14.8426C20.412 14.8426 18.9 13.3313 18.9 11.4693C18.9 9.6072 20.412 8.09595 22.275 8.09595ZM4.725 10.7946C4.347 10.7946 4.05 11.0915 4.05 11.4693C4.05 11.8471 4.347 12.1439 4.725 12.1439C5.103 12.1439 5.4 11.8471 5.4 11.4693C5.4 11.0915 5.103 10.7946 4.725 10.7946ZM22.275 10.7946C21.897 10.7946 21.6 11.0915 21.6 11.4693C21.6 11.8471 21.897 12.1439 22.275 12.1439C22.653 12.1439 22.95 11.8471 22.95 11.4693C22.95 11.0915 22.653 10.7946 22.275 10.7946ZM13.5 0C16.4835 0 18.9 2.41529 18.9 5.3973C18.9 8.37931 16.4835 10.7946 13.5 10.7946C10.5165 10.7946 8.1 8.37931 8.1 5.3973C8.1 2.41529 10.5165 0 13.5 0ZM13.5 2.69865C12.015 2.69865 10.8 3.91304 10.8 5.3973C10.8 6.88156 12.015 8.09595 13.5 8.09595C14.985 8.09595 16.2 6.88156 16.2 5.3973C16.2 3.91304 14.985 2.69865 13.5 2.69865Z" fill="#0231A8"/>
</svg>
